
<svg xmlns="http://www.w3.org/2000/svg" width="838.891" height="726.501" viewBox="0 0 221.957 192.22" version="1.1" id="svg2754"><g id="layer1" transform="translate(126.85 48.17)" stroke="none" stroke-width=".347" stroke-linecap="round" stroke-linejoin="round" stroke-miterlimit="4" stroke-dasharray="none" stroke-opacity=".757" paint-order="markers fill stroke"><path id="path3345" d="M-43.35 95.995h-55.488l27.744-48.055z" opacity="1" fill="#fff" fill-opacity="1"/><path d="M11.873 95.995h-55.49l27.745-48.055z" id="path3347" opacity="1" fill="#f5c426" fill-opacity="1"/><path id="path3349" d="M67.362 95.995h-55.49L39.618 47.94z" opacity="1" fill="#9445ce" fill-opacity=".941"/><path d="M-15.872-47.94H-71.36l27.745-48.055z" id="path3353" transform="scale(1 -1)" opacity="1" fill="#9dc27c" fill-opacity="1"/><path id="path3355" d="M39.617-47.94h-55.489l27.745-48.055z" transform="scale(1 -1)" opacity="1" fill="#9dc27c" fill-opacity="1"/><path d="M95.107-47.94h-55.49l27.745-48.055z" id="path3357" transform="scale(1 -1)" opacity="1" fill="#0ba4c3" fill-opacity="1"/><path d="M-71.361 144.05h-55.49l27.745-48.055z" id="path3361" opacity="1" fill="#0ba4c3" fill-opacity="1"/><path id="path3363" d="M-15.872 144.05H-71.36l27.745-48.055z" opacity="1" fill="#9445ce" fill-opacity=".941"/><path d="M39.617 144.05h-55.489l27.745-48.055z" id="path3365" opacity="1" fill="#0ba4c3" fill-opacity="1"/><path id="path3367" d="M95.107 144.05h-55.49l27.745-48.055z" opacity="1" fill="#0dc5ea" fill-opacity="1"/><path transform="scale(1 -1)" id="path3369" d="M-43.616-95.995h-55.49l27.745-48.055z" opacity="1" fill="#f5c426" fill-opacity="1"/><path transform="scale(1 -1)" id="path3373" d="M67.362-95.995h-55.49l27.745-48.055z" opacity="1" fill="#ee9835" fill-opacity="1"/><path id="path3409" d="M67.362-.115h-55.49L39.618-48.17z" opacity="1" fill="#f5c426" fill-opacity="1"/><path transform="scale(1 -1)" d="M95.107 48.17h-55.49L67.362.115z" id="path3417" opacity="1" fill="#9dc27c" fill-opacity="1"/><path id="path3423" d="M-15.872 47.94H-71.36L-43.616-.115z" opacity="1" fill="#0ba4c3" fill-opacity="1"/><path d="M39.617 47.94h-55.489L11.873-.115z" id="path3425" opacity="1" fill="#9445ce" fill-opacity=".941"/><path id="path3427" d="M95.107 47.94h-55.49L67.362-.115z" opacity="1" fill="#0ba4c3" fill-opacity="1"/><path d="M11.873.115h-55.49l27.745-48.055z" id="path3431" transform="scale(1 -1)" opacity="1" fill="#f5c426" fill-opacity="1"/><path d="M-99.106 95.995l-27.744.375V47.94z" id="path4099" opacity="1" fill="#9445ce" fill-opacity=".941"/><path d="M-99.106 95.995l-27.744.375v47.68z" id="path4101" opacity="1" fill="#f5c426" fill-opacity="1"/><path d="M-71.361 47.94h-55.49L-99.105-.115z" id="path4103" opacity="1" fill="#f5c426" fill-opacity="1"/><path transform="scale(1 -1)" d="M-71.361-47.94h-55.49l27.745-48.055z" id="path4109" opacity="1" fill="#332d2d" fill-opacity="1"/><path id="path4111" d="M-43.616.115h-55.49L-71.36-47.94z" transform="scale(1 -1)" opacity="1" fill="#332d2d" fill-opacity="1"/><path id="path4113" d="M-43.616-.115h-55.49L-71.36-48.17z" opacity="1" fill="#0ba4c3" fill-opacity="1"/><path d="M-99.106-.115l-27.744-.187V-48.17z" id="path4121" opacity="1" fill="#9445ce" fill-opacity=".941"/><path d="M-99.106-.115l-27.744-.187V47.94z" id="path4123" opacity="1" fill="#f5c426" fill-opacity="1"/><path transform="scale(1 -1)" d="M-15.872 48.17H-71.36L-43.616.115z" id="path4125" opacity="1" fill="#fff" fill-opacity="1"/><path transform="scale(1 -1)" d="M-71.361 48.17h-55.49L-99.105.115z" id="path4127" opacity="1" fill="#332d2d" fill-opacity="1"/><path d="M95.106 95.995H67.362L95.107 47.94z" id="path4294" opacity="1" fill="#9445ce" fill-opacity=".941"/><path transform="scale(1 -1)" d="M11.873-95.995h-55.49l27.745-48.055z" id="path4296" opacity="1" fill="#332d2d" fill-opacity="1"/><path transform="scale(1 -1)" d="M95.106-95.995H67.362l27.745-48.055z" id="path4298" opacity="1" fill="#f5c426" fill-opacity="1"/><path d="M95.106-.115H67.362L95.107-48.17z" id="path4300" opacity="1" fill="#9445ce" fill-opacity=".941"/><path transform="scale(1 -1)" d="M95.106.115H67.362L95.107-47.94z" id="path4302" opacity="1" fill="#f5c426" fill-opacity="1"/><path d="M11.873-.115h-55.49l27.745-48.055z" id="path4310" opacity="1" fill="#9445ce" fill-opacity=".941"/><path id="path4312" d="M39.617 48.17h-55.489L11.873.115z" transform="scale(1 -1)" opacity="1" fill="#332d2d" fill-opacity="1"/></g></svg>



